<!-- Chegg-style hero illustration for LandingPage -->
<svg width="400" height="400" viewBox="0 0 400 400" fill="none" xmlns="http://www.w3.org/2000/svg">
  <rect width="400" height="400" rx="40" fill="#FFF7ED"/>
  <ellipse cx="200" cy="320" rx="120" ry="30" fill="#FED7AA"/>
  <rect x="110" y="120" width="180" height="120" rx="20" fill="#FDBA74" stroke="#FB923C" stroke-width="4"/>
  <rect x="130" y="140" width="140" height="80" rx="12" fill="#FFF"/>
  <rect x="150" y="160" width="100" height="12" rx="6" fill="#FDBA74"/>
  <rect x="150" y="180" width="60" height="12" rx="6" fill="#FDBA74"/>
  <rect x="150" y="200" width="80" height="12" rx="6" fill="#FDBA74"/>
  <circle cx="200" cy="110" r="32" fill="#FDBA74" stroke="#FB923C" stroke-width="4"/>
  <ellipse cx="200" cy="110" rx="18" ry="12" fill="#FFF"/>
  <ellipse cx="200" cy="110" rx="8" ry="5" fill="#FDBA74"/>
  <rect x="180" y="60" width="40" height="20" rx="10" fill="#FB923C"/>
  <rect x="190" y="70" width="20" height="8" rx="4" fill="#FFF"/>
  <rect x="170" y="250" width="60" height="16" rx="8" fill="#FDBA74"/>
  <rect x="185" y="266" width="30" height="8" rx="4" fill="#FB923C"/>
</svg>
