<svg xmlns="http://www.w3.org/2000/svg" viewBox="0 0 64 64" width="64" height="64"><defs><linearGradient id="quickStudyGradient" x1="0%" y1="0%" x2="100%" y2="100%"><stop offset="0%" stop-color="#6366f1"/><stop offset="100%" stop-color="#06b6d4"/></linearGradient></defs><rect width="64" height="64" rx="16" fill="url(#quickStudyGradient)"/><g><path d="M32 14c-7.732 0-14 6.268-14 14s6.268 14 14 14 14-6.268 14-14-6.268-14-14-14zm0 24a10 10 0 1 1 0-20 10 10 0 0 1 0 20z" fill="#fff"/><path d="M32 22a2 2 0 0 1 2 2v6h4a2 2 0 1 1 0 4h-6a2 2 0 0 1-2-2v-8a2 2 0 1 1 4 0z" fill="#fff"/></g></svg>